<mxfile host="app.diagrams.net" agent="Mozilla/5.0 (Windows NT 10.0; Win64; x64) AppleWebKit/537.36 (KHTML, like Gecko) Chrome/134.0.0.0 Safari/537.36" version="26.1.0">
  <diagram name="Page-1" id="bBzaVOmjBLeOqv6GQBe8">
    <mxGraphModel dx="4522" dy="1556" grid="1" gridSize="10" guides="1" tooltips="1" connect="1" arrows="1" fold="1" page="1" pageScale="1" pageWidth="827" pageHeight="1169" math="0" shadow="0">
      <root>
        <mxCell id="0" />
        <mxCell id="1" parent="0" />
        <mxCell id="Wtg5NkXK0Hf4k2fTq3NZ-1" value="Avis" style="swimlane;fontStyle=0;childLayout=stackLayout;horizontal=1;startSize=30;horizontalStack=0;resizeParent=1;resizeParentMax=0;resizeLast=0;collapsible=1;marginBottom=0;whiteSpace=wrap;html=1;" parent="1" vertex="1">
          <mxGeometry x="-520" y="829" width="140" height="210" as="geometry" />
        </mxCell>
        <mxCell id="Wtg5NkXK0Hf4k2fTq3NZ-2" value="id_avis" style="text;strokeColor=none;fillColor=none;align=left;verticalAlign=middle;spacingLeft=4;spacingRight=4;overflow=hidden;points=[[0,0.5],[1,0.5]];portConstraint=eastwest;rotatable=0;whiteSpace=wrap;html=1;" parent="Wtg5NkXK0Hf4k2fTq3NZ-1" vertex="1">
          <mxGeometry y="30" width="140" height="30" as="geometry" />
        </mxCell>
        <mxCell id="Wtg5NkXK0Hf4k2fTq3NZ-3" value="id_élève " style="text;strokeColor=none;fillColor=none;align=left;verticalAlign=middle;spacingLeft=4;spacingRight=4;overflow=hidden;points=[[0,0.5],[1,0.5]];portConstraint=eastwest;rotatable=0;whiteSpace=wrap;html=1;" parent="Wtg5NkXK0Hf4k2fTq3NZ-1" vertex="1">
          <mxGeometry y="60" width="140" height="30" as="geometry" />
        </mxCell>
        <mxCell id="Wtg5NkXK0Hf4k2fTq3NZ-4" value="contenu" style="text;strokeColor=none;fillColor=none;align=left;verticalAlign=middle;spacingLeft=4;spacingRight=4;overflow=hidden;points=[[0,0.5],[1,0.5]];portConstraint=eastwest;rotatable=0;whiteSpace=wrap;html=1;" parent="Wtg5NkXK0Hf4k2fTq3NZ-1" vertex="1">
          <mxGeometry y="90" width="140" height="30" as="geometry" />
        </mxCell>
        <mxCell id="Wtg5NkXK0Hf4k2fTq3NZ-39" value="date_depot" style="text;strokeColor=none;fillColor=none;align=left;verticalAlign=middle;spacingLeft=4;spacingRight=4;overflow=hidden;points=[[0,0.5],[1,0.5]];portConstraint=eastwest;rotatable=0;whiteSpace=wrap;html=1;" parent="Wtg5NkXK0Hf4k2fTq3NZ-1" vertex="1">
          <mxGeometry y="120" width="140" height="30" as="geometry" />
        </mxCell>
        <mxCell id="Wtg5NkXK0Hf4k2fTq3NZ-41" value="date_publication" style="text;strokeColor=none;fillColor=none;align=left;verticalAlign=middle;spacingLeft=4;spacingRight=4;overflow=hidden;points=[[0,0.5],[1,0.5]];portConstraint=eastwest;rotatable=0;whiteSpace=wrap;html=1;" parent="Wtg5NkXK0Hf4k2fTq3NZ-1" vertex="1">
          <mxGeometry y="150" width="140" height="30" as="geometry" />
        </mxCell>
        <mxCell id="Wtg5NkXK0Hf4k2fTq3NZ-40" value="statut" style="text;strokeColor=none;fillColor=none;align=left;verticalAlign=middle;spacingLeft=4;spacingRight=4;overflow=hidden;points=[[0,0.5],[1,0.5]];portConstraint=eastwest;rotatable=0;whiteSpace=wrap;html=1;" parent="Wtg5NkXK0Hf4k2fTq3NZ-1" vertex="1">
          <mxGeometry y="180" width="140" height="30" as="geometry" />
        </mxCell>
        <mxCell id="Wtg5NkXK0Hf4k2fTq3NZ-5" value="Auto-école" style="swimlane;fontStyle=0;childLayout=stackLayout;horizontal=1;startSize=30;horizontalStack=0;resizeParent=1;resizeParentMax=0;resizeLast=0;collapsible=1;marginBottom=0;whiteSpace=wrap;html=1;" parent="1" vertex="1">
          <mxGeometry x="-520" y="1860" width="140" height="150" as="geometry" />
        </mxCell>
        <mxCell id="Wtg5NkXK0Hf4k2fTq3NZ-6" value="id_autoecole" style="text;strokeColor=none;fillColor=none;align=left;verticalAlign=middle;spacingLeft=4;spacingRight=4;overflow=hidden;points=[[0,0.5],[1,0.5]];portConstraint=eastwest;rotatable=0;whiteSpace=wrap;html=1;" parent="Wtg5NkXK0Hf4k2fTq3NZ-5" vertex="1">
          <mxGeometry y="30" width="140" height="30" as="geometry" />
        </mxCell>
        <mxCell id="Wtg5NkXK0Hf4k2fTq3NZ-7" value="nom" style="text;strokeColor=none;fillColor=none;align=left;verticalAlign=middle;spacingLeft=4;spacingRight=4;overflow=hidden;points=[[0,0.5],[1,0.5]];portConstraint=eastwest;rotatable=0;whiteSpace=wrap;html=1;" parent="Wtg5NkXK0Hf4k2fTq3NZ-5" vertex="1">
          <mxGeometry y="60" width="140" height="30" as="geometry" />
        </mxCell>
        <mxCell id="Wtg5NkXK0Hf4k2fTq3NZ-8" value="adresse" style="text;strokeColor=none;fillColor=none;align=left;verticalAlign=middle;spacingLeft=4;spacingRight=4;overflow=hidden;points=[[0,0.5],[1,0.5]];portConstraint=eastwest;rotatable=0;whiteSpace=wrap;html=1;" parent="Wtg5NkXK0Hf4k2fTq3NZ-5" vertex="1">
          <mxGeometry y="90" width="140" height="30" as="geometry" />
        </mxCell>
        <mxCell id="Wtg5NkXK0Hf4k2fTq3NZ-42" value="téléphone" style="text;strokeColor=none;fillColor=none;align=left;verticalAlign=middle;spacingLeft=4;spacingRight=4;overflow=hidden;points=[[0,0.5],[1,0.5]];portConstraint=eastwest;rotatable=0;whiteSpace=wrap;html=1;" parent="Wtg5NkXK0Hf4k2fTq3NZ-5" vertex="1">
          <mxGeometry y="120" width="140" height="30" as="geometry" />
        </mxCell>
        <mxCell id="Wtg5NkXK0Hf4k2fTq3NZ-17" value="admin" style="swimlane;fontStyle=0;childLayout=stackLayout;horizontal=1;startSize=30;horizontalStack=0;resizeParent=1;resizeParentMax=0;resizeLast=0;collapsible=1;marginBottom=0;whiteSpace=wrap;html=1;" parent="1" vertex="1">
          <mxGeometry x="-230" y="1310" width="140" height="180" as="geometry" />
        </mxCell>
        <mxCell id="Wtg5NkXK0Hf4k2fTq3NZ-18" value="id_admin" style="text;strokeColor=none;fillColor=none;align=left;verticalAlign=middle;spacingLeft=4;spacingRight=4;overflow=hidden;points=[[0,0.5],[1,0.5]];portConstraint=eastwest;rotatable=0;whiteSpace=wrap;html=1;" parent="Wtg5NkXK0Hf4k2fTq3NZ-17" vertex="1">
          <mxGeometry y="30" width="140" height="30" as="geometry" />
        </mxCell>
        <mxCell id="Wtg5NkXK0Hf4k2fTq3NZ-19" value="nom " style="text;strokeColor=none;fillColor=none;align=left;verticalAlign=middle;spacingLeft=4;spacingRight=4;overflow=hidden;points=[[0,0.5],[1,0.5]];portConstraint=eastwest;rotatable=0;whiteSpace=wrap;html=1;" parent="Wtg5NkXK0Hf4k2fTq3NZ-17" vertex="1">
          <mxGeometry y="60" width="140" height="30" as="geometry" />
        </mxCell>
        <mxCell id="Wtg5NkXK0Hf4k2fTq3NZ-38" value="identifiant" style="text;strokeColor=none;fillColor=none;align=left;verticalAlign=middle;spacingLeft=4;spacingRight=4;overflow=hidden;points=[[0,0.5],[1,0.5]];portConstraint=eastwest;rotatable=0;whiteSpace=wrap;html=1;" parent="Wtg5NkXK0Hf4k2fTq3NZ-17" vertex="1">
          <mxGeometry y="90" width="140" height="30" as="geometry" />
        </mxCell>
        <mxCell id="Wtg5NkXK0Hf4k2fTq3NZ-20" value="mot_de_passe" style="text;strokeColor=none;fillColor=none;align=left;verticalAlign=middle;spacingLeft=4;spacingRight=4;overflow=hidden;points=[[0,0.5],[1,0.5]];portConstraint=eastwest;rotatable=0;whiteSpace=wrap;html=1;" parent="Wtg5NkXK0Hf4k2fTq3NZ-17" vertex="1">
          <mxGeometry y="120" width="140" height="30" as="geometry" />
        </mxCell>
        <mxCell id="ZjXORviGVi0nZAMHRnbz-6" value="role" style="text;strokeColor=none;fillColor=none;align=left;verticalAlign=middle;spacingLeft=4;spacingRight=4;overflow=hidden;points=[[0,0.5],[1,0.5]];portConstraint=eastwest;rotatable=0;whiteSpace=wrap;html=1;" vertex="1" parent="Wtg5NkXK0Hf4k2fTq3NZ-17">
          <mxGeometry y="150" width="140" height="30" as="geometry" />
        </mxCell>
        <mxCell id="Wtg5NkXK0Hf4k2fTq3NZ-21" value="&lt;strong&gt;Test&lt;/strong&gt;" style="swimlane;fontStyle=0;childLayout=stackLayout;horizontal=1;startSize=30;horizontalStack=0;resizeParent=1;resizeParentMax=0;resizeLast=0;collapsible=1;marginBottom=0;whiteSpace=wrap;html=1;" parent="1" vertex="1">
          <mxGeometry x="-1060" y="1290" width="140" height="180" as="geometry" />
        </mxCell>
        <mxCell id="Wtg5NkXK0Hf4k2fTq3NZ-22" value="id_test" style="text;strokeColor=none;fillColor=none;align=left;verticalAlign=middle;spacingLeft=4;spacingRight=4;overflow=hidden;points=[[0,0.5],[1,0.5]];portConstraint=eastwest;rotatable=0;whiteSpace=wrap;html=1;" parent="Wtg5NkXK0Hf4k2fTq3NZ-21" vertex="1">
          <mxGeometry y="30" width="140" height="30" as="geometry" />
        </mxCell>
        <mxCell id="Wtg5NkXK0Hf4k2fTq3NZ-23" value="id_élève " style="text;strokeColor=none;fillColor=none;align=left;verticalAlign=middle;spacingLeft=4;spacingRight=4;overflow=hidden;points=[[0,0.5],[1,0.5]];portConstraint=eastwest;rotatable=0;whiteSpace=wrap;html=1;" parent="Wtg5NkXK0Hf4k2fTq3NZ-21" vertex="1">
          <mxGeometry y="60" width="140" height="30" as="geometry" />
        </mxCell>
        <mxCell id="Wtg5NkXK0Hf4k2fTq3NZ-24" value="thème" style="text;strokeColor=none;fillColor=none;align=left;verticalAlign=middle;spacingLeft=4;spacingRight=4;overflow=hidden;points=[[0,0.5],[1,0.5]];portConstraint=eastwest;rotatable=0;whiteSpace=wrap;html=1;" parent="Wtg5NkXK0Hf4k2fTq3NZ-21" vertex="1">
          <mxGeometry y="90" width="140" height="30" as="geometry" />
        </mxCell>
        <mxCell id="Wtg5NkXK0Hf4k2fTq3NZ-36" value="date_test" style="text;strokeColor=none;fillColor=none;align=left;verticalAlign=middle;spacingLeft=4;spacingRight=4;overflow=hidden;points=[[0,0.5],[1,0.5]];portConstraint=eastwest;rotatable=0;whiteSpace=wrap;html=1;" parent="Wtg5NkXK0Hf4k2fTq3NZ-21" vertex="1">
          <mxGeometry y="120" width="140" height="30" as="geometry" />
        </mxCell>
        <mxCell id="Wtg5NkXK0Hf4k2fTq3NZ-37" value="score" style="text;strokeColor=none;fillColor=none;align=left;verticalAlign=middle;spacingLeft=4;spacingRight=4;overflow=hidden;points=[[0,0.5],[1,0.5]];portConstraint=eastwest;rotatable=0;whiteSpace=wrap;html=1;" parent="Wtg5NkXK0Hf4k2fTq3NZ-21" vertex="1">
          <mxGeometry y="150" width="140" height="30" as="geometry" />
        </mxCell>
        <mxCell id="Wtg5NkXK0Hf4k2fTq3NZ-25" value="&lt;strong&gt;Élève&lt;/strong&gt;" style="swimlane;fontStyle=0;childLayout=stackLayout;horizontal=1;startSize=30;horizontalStack=0;resizeParent=1;resizeParentMax=0;resizeLast=0;collapsible=1;marginBottom=0;whiteSpace=wrap;html=1;" parent="1" vertex="1">
          <mxGeometry x="-520" y="1280" width="140" height="300" as="geometry" />
        </mxCell>
        <mxCell id="Wtg5NkXK0Hf4k2fTq3NZ-26" value="&lt;u&gt;id_élève&lt;/u&gt;" style="text;strokeColor=none;fillColor=none;align=left;verticalAlign=middle;spacingLeft=4;spacingRight=4;overflow=hidden;points=[[0,0.5],[1,0.5]];portConstraint=eastwest;rotatable=0;whiteSpace=wrap;html=1;" parent="Wtg5NkXK0Hf4k2fTq3NZ-25" vertex="1">
          <mxGeometry y="30" width="140" height="30" as="geometry" />
        </mxCell>
        <mxCell id="Wtg5NkXK0Hf4k2fTq3NZ-27" value="nom" style="text;strokeColor=none;fillColor=none;align=left;verticalAlign=middle;spacingLeft=4;spacingRight=4;overflow=hidden;points=[[0,0.5],[1,0.5]];portConstraint=eastwest;rotatable=0;whiteSpace=wrap;html=1;" parent="Wtg5NkXK0Hf4k2fTq3NZ-25" vertex="1">
          <mxGeometry y="60" width="140" height="30" as="geometry" />
        </mxCell>
        <mxCell id="Wtg5NkXK0Hf4k2fTq3NZ-28" value="prénom" style="text;strokeColor=none;fillColor=none;align=left;verticalAlign=middle;spacingLeft=4;spacingRight=4;overflow=hidden;points=[[0,0.5],[1,0.5]];portConstraint=eastwest;rotatable=0;whiteSpace=wrap;html=1;" parent="Wtg5NkXK0Hf4k2fTq3NZ-25" vertex="1">
          <mxGeometry y="90" width="140" height="30" as="geometry" />
        </mxCell>
        <mxCell id="Wtg5NkXK0Hf4k2fTq3NZ-30" value="date_naissance" style="text;strokeColor=none;fillColor=none;align=left;verticalAlign=middle;spacingLeft=4;spacingRight=4;overflow=hidden;points=[[0,0.5],[1,0.5]];portConstraint=eastwest;rotatable=0;whiteSpace=wrap;html=1;" parent="Wtg5NkXK0Hf4k2fTq3NZ-25" vertex="1">
          <mxGeometry y="120" width="140" height="30" as="geometry" />
        </mxCell>
        <mxCell id="Wtg5NkXK0Hf4k2fTq3NZ-31" value="adresse" style="text;strokeColor=none;fillColor=none;align=left;verticalAlign=middle;spacingLeft=4;spacingRight=4;overflow=hidden;points=[[0,0.5],[1,0.5]];portConstraint=eastwest;rotatable=0;whiteSpace=wrap;html=1;" parent="Wtg5NkXK0Hf4k2fTq3NZ-25" vertex="1">
          <mxGeometry y="150" width="140" height="30" as="geometry" />
        </mxCell>
        <mxCell id="Wtg5NkXK0Hf4k2fTq3NZ-32" value="date_inscription" style="text;strokeColor=none;fillColor=none;align=left;verticalAlign=middle;spacingLeft=4;spacingRight=4;overflow=hidden;points=[[0,0.5],[1,0.5]];portConstraint=eastwest;rotatable=0;whiteSpace=wrap;html=1;" parent="Wtg5NkXK0Hf4k2fTq3NZ-25" vertex="1">
          <mxGeometry y="180" width="140" height="30" as="geometry" />
        </mxCell>
        <mxCell id="Wtg5NkXK0Hf4k2fTq3NZ-34" value="NPEH" style="text;strokeColor=none;fillColor=none;align=left;verticalAlign=middle;spacingLeft=4;spacingRight=4;overflow=hidden;points=[[0,0.5],[1,0.5]];portConstraint=eastwest;rotatable=0;whiteSpace=wrap;html=1;" parent="Wtg5NkXK0Hf4k2fTq3NZ-25" vertex="1">
          <mxGeometry y="210" width="140" height="30" as="geometry" />
        </mxCell>
        <mxCell id="Wtg5NkXK0Hf4k2fTq3NZ-35" value="ETG" style="text;strokeColor=none;fillColor=none;align=left;verticalAlign=middle;spacingLeft=4;spacingRight=4;overflow=hidden;points=[[0,0.5],[1,0.5]];portConstraint=eastwest;rotatable=0;whiteSpace=wrap;html=1;" parent="Wtg5NkXK0Hf4k2fTq3NZ-25" vertex="1">
          <mxGeometry y="240" width="140" height="30" as="geometry" />
        </mxCell>
        <mxCell id="Wtg5NkXK0Hf4k2fTq3NZ-33" value="echec_ETG" style="text;strokeColor=none;fillColor=none;align=left;verticalAlign=middle;spacingLeft=4;spacingRight=4;overflow=hidden;points=[[0,0.5],[1,0.5]];portConstraint=eastwest;rotatable=0;whiteSpace=wrap;html=1;" parent="Wtg5NkXK0Hf4k2fTq3NZ-25" vertex="1">
          <mxGeometry y="270" width="140" height="30" as="geometry" />
        </mxCell>
        <mxCell id="Wtg5NkXK0Hf4k2fTq3NZ-46" value="" style="group" parent="1" vertex="1" connectable="0">
          <mxGeometry x="-790" y="1340" width="120" height="80" as="geometry" />
        </mxCell>
        <mxCell id="Wtg5NkXK0Hf4k2fTq3NZ-44" value="Passer&lt;br&gt;&lt;div&gt;&lt;br&gt;&lt;/div&gt;&lt;div&gt;&lt;br&gt;&lt;/div&gt;" style="ellipse;whiteSpace=wrap;html=1;" parent="Wtg5NkXK0Hf4k2fTq3NZ-46" vertex="1">
          <mxGeometry width="120" height="80" as="geometry" />
        </mxCell>
        <mxCell id="Wtg5NkXK0Hf4k2fTq3NZ-45" value="" style="shape=link;html=1;rounded=0;entryX=1;entryY=0.5;entryDx=0;entryDy=0;" parent="Wtg5NkXK0Hf4k2fTq3NZ-46" target="Wtg5NkXK0Hf4k2fTq3NZ-44" edge="1">
          <mxGeometry width="100" relative="1" as="geometry">
            <mxPoint y="40" as="sourcePoint" />
            <mxPoint x="100" y="40" as="targetPoint" />
          </mxGeometry>
        </mxCell>
        <mxCell id="Wtg5NkXK0Hf4k2fTq3NZ-50" value="" style="group" parent="1" vertex="1" connectable="0">
          <mxGeometry x="-510" y="1120" width="120" height="80" as="geometry" />
        </mxCell>
        <mxCell id="Wtg5NkXK0Hf4k2fTq3NZ-51" value="Donner&lt;div&gt;&lt;br&gt;&lt;/div&gt;&lt;div&gt;&lt;br&gt;&lt;/div&gt;" style="ellipse;whiteSpace=wrap;html=1;" parent="Wtg5NkXK0Hf4k2fTq3NZ-50" vertex="1">
          <mxGeometry width="120" height="80" as="geometry" />
        </mxCell>
        <mxCell id="Wtg5NkXK0Hf4k2fTq3NZ-52" value="" style="shape=link;html=1;rounded=0;entryX=1;entryY=0.5;entryDx=0;entryDy=0;" parent="Wtg5NkXK0Hf4k2fTq3NZ-50" target="Wtg5NkXK0Hf4k2fTq3NZ-51" edge="1">
          <mxGeometry width="100" relative="1" as="geometry">
            <mxPoint y="40" as="sourcePoint" />
            <mxPoint x="100" y="40" as="targetPoint" />
          </mxGeometry>
        </mxCell>
        <mxCell id="Wtg5NkXK0Hf4k2fTq3NZ-54" value="" style="group" parent="1" vertex="1" connectable="0">
          <mxGeometry x="-510" y="1680" width="120" height="80" as="geometry" />
        </mxCell>
        <mxCell id="Wtg5NkXK0Hf4k2fTq3NZ-55" value="&lt;div&gt;Appartient à&lt;/div&gt;&lt;div&gt;&lt;br&gt;&lt;/div&gt;&lt;div&gt;&lt;br&gt;&lt;/div&gt;" style="ellipse;whiteSpace=wrap;html=1;" parent="Wtg5NkXK0Hf4k2fTq3NZ-54" vertex="1">
          <mxGeometry width="120" height="80" as="geometry" />
        </mxCell>
        <mxCell id="Wtg5NkXK0Hf4k2fTq3NZ-56" value="" style="shape=link;html=1;rounded=0;entryX=1;entryY=0.5;entryDx=0;entryDy=0;" parent="Wtg5NkXK0Hf4k2fTq3NZ-54" target="Wtg5NkXK0Hf4k2fTq3NZ-55" edge="1">
          <mxGeometry width="100" relative="1" as="geometry">
            <mxPoint y="40" as="sourcePoint" />
            <mxPoint x="100" y="40" as="targetPoint" />
          </mxGeometry>
        </mxCell>
        <mxCell id="Wtg5NkXK0Hf4k2fTq3NZ-68" value="" style="endArrow=none;html=1;rounded=0;exitX=0.5;exitY=0;exitDx=0;exitDy=0;" parent="1" edge="1">
          <mxGeometry width="50" height="50" relative="1" as="geometry">
            <mxPoint x="-450" y="1860" as="sourcePoint" />
            <mxPoint x="-450" y="1760" as="targetPoint" />
          </mxGeometry>
        </mxCell>
        <mxCell id="Wtg5NkXK0Hf4k2fTq3NZ-69" value="" style="endArrow=none;html=1;rounded=0;exitX=0.5;exitY=0;exitDx=0;exitDy=0;entryX=0.5;entryY=1.02;entryDx=0;entryDy=0;entryPerimeter=0;" parent="1" source="Wtg5NkXK0Hf4k2fTq3NZ-55" target="Wtg5NkXK0Hf4k2fTq3NZ-33" edge="1">
          <mxGeometry width="50" height="50" relative="1" as="geometry">
            <mxPoint x="-430" y="2110" as="sourcePoint" />
            <mxPoint x="-431" y="2003" as="targetPoint" />
          </mxGeometry>
        </mxCell>
        <mxCell id="Wtg5NkXK0Hf4k2fTq3NZ-70" value="" style="endArrow=none;html=1;rounded=0;" parent="1" edge="1">
          <mxGeometry width="50" height="50" relative="1" as="geometry">
            <mxPoint x="-520" y="1380" as="sourcePoint" />
            <mxPoint x="-670" y="1380" as="targetPoint" />
          </mxGeometry>
        </mxCell>
        <mxCell id="Wtg5NkXK0Hf4k2fTq3NZ-71" value="" style="endArrow=none;html=1;rounded=0;exitX=0;exitY=0.5;exitDx=0;exitDy=0;entryX=0.993;entryY=-0.067;entryDx=0;entryDy=0;entryPerimeter=0;" parent="1" source="Wtg5NkXK0Hf4k2fTq3NZ-44" target="Wtg5NkXK0Hf4k2fTq3NZ-24" edge="1">
          <mxGeometry width="50" height="50" relative="1" as="geometry">
            <mxPoint x="-506" y="1389" as="sourcePoint" />
            <mxPoint x="-660" y="1390" as="targetPoint" />
          </mxGeometry>
        </mxCell>
        <mxCell id="Wtg5NkXK0Hf4k2fTq3NZ-72" value="" style="endArrow=none;html=1;rounded=0;exitX=0.5;exitY=0;exitDx=0;exitDy=0;" parent="1" source="Wtg5NkXK0Hf4k2fTq3NZ-25" edge="1">
          <mxGeometry width="50" height="50" relative="1" as="geometry">
            <mxPoint x="-780" y="1390" as="sourcePoint" />
            <mxPoint x="-450" y="1200" as="targetPoint" />
          </mxGeometry>
        </mxCell>
        <mxCell id="Wtg5NkXK0Hf4k2fTq3NZ-73" value="" style="endArrow=none;html=1;rounded=0;exitX=0.5;exitY=0;exitDx=0;exitDy=0;entryX=0.5;entryY=1.133;entryDx=0;entryDy=0;entryPerimeter=0;" parent="1" source="Wtg5NkXK0Hf4k2fTq3NZ-51" target="Wtg5NkXK0Hf4k2fTq3NZ-40" edge="1">
          <mxGeometry width="50" height="50" relative="1" as="geometry">
            <mxPoint x="-440" y="1290" as="sourcePoint" />
            <mxPoint x="-440" y="1210" as="targetPoint" />
          </mxGeometry>
        </mxCell>
        <mxCell id="Wtg5NkXK0Hf4k2fTq3NZ-76" value="(0,n)" style="text;strokeColor=none;fillColor=none;align=left;verticalAlign=middle;spacingLeft=4;spacingRight=4;overflow=hidden;points=[[0,0.5],[1,0.5]];portConstraint=eastwest;rotatable=0;whiteSpace=wrap;html=1;" parent="1" vertex="1">
          <mxGeometry x="-610" y="1340" width="40" height="30" as="geometry" />
        </mxCell>
        <mxCell id="Wtg5NkXK0Hf4k2fTq3NZ-77" value=" (1,1)" style="text;strokeColor=none;fillColor=none;align=left;verticalAlign=middle;spacingLeft=4;spacingRight=4;overflow=hidden;points=[[0,0.5],[1,0.5]];portConstraint=eastwest;rotatable=0;whiteSpace=wrap;html=1;" parent="1" vertex="1">
          <mxGeometry x="-870" y="1340" width="40" height="30" as="geometry" />
        </mxCell>
        <mxCell id="Wtg5NkXK0Hf4k2fTq3NZ-79" value="(1,1)" style="text;strokeColor=none;fillColor=none;align=left;verticalAlign=middle;spacingLeft=4;spacingRight=4;overflow=hidden;points=[[0,0.5],[1,0.5]];portConstraint=eastwest;rotatable=0;whiteSpace=wrap;html=1;" parent="1" vertex="1">
          <mxGeometry x="-500" y="1230" width="40" height="30" as="geometry" />
        </mxCell>
        <mxCell id="Wtg5NkXK0Hf4k2fTq3NZ-80" value="(0,n)" style="text;strokeColor=none;fillColor=none;align=left;verticalAlign=middle;spacingLeft=4;spacingRight=4;overflow=hidden;points=[[0,0.5],[1,0.5]];portConstraint=eastwest;rotatable=0;whiteSpace=wrap;html=1;" parent="1" vertex="1">
          <mxGeometry x="-500" y="1060" width="40" height="30" as="geometry" />
        </mxCell>
        <mxCell id="Wtg5NkXK0Hf4k2fTq3NZ-82" value="(1,1)" style="text;strokeColor=none;fillColor=none;align=left;verticalAlign=middle;spacingLeft=4;spacingRight=4;overflow=hidden;points=[[0,0.5],[1,0.5]];portConstraint=eastwest;rotatable=0;whiteSpace=wrap;html=1;" parent="1" vertex="1">
          <mxGeometry x="-500" y="1810" width="40" height="30" as="geometry" />
        </mxCell>
        <mxCell id="Wtg5NkXK0Hf4k2fTq3NZ-83" value="(0,n)" style="text;strokeColor=none;fillColor=none;align=left;verticalAlign=middle;spacingLeft=4;spacingRight=4;overflow=hidden;points=[[0,0.5],[1,0.5]];portConstraint=eastwest;rotatable=0;whiteSpace=wrap;html=1;" parent="1" vertex="1">
          <mxGeometry x="-500" y="1620" width="40" height="30" as="geometry" />
        </mxCell>
      </root>
    </mxGraphModel>
  </diagram>
</mxfile>
